Coordinates
version=1
nRows=26
nColumns=24
inDegrees=yes

Units are S.I. units (second, meters, Newtons, ...)
Angles are in degrees.

endheader
time	pelvis_tilt	pelvis_list	pelvis_rotation	pelvis_tx	pelvis_ty	pelvis_tz	hip_flexion_r	hip_adduction_r	hip_rotation_r	knee_angle_r	ankle_angle_r	subtalar_angle_r	mtp_angle_r	hip_flexion_l	hip_adduction_l	hip_rotation_l	knee_angle_l	ankle_angle_l	subtalar_angle_l	mtp_angle_l	lumbar_extension	lumbar_bending	lumbar_rotation
      3.42000000	     -2.49499104	     -4.97845713	     -2.41251585	     -1.17204032	      0.93584747	      0.23978877	     13.98539542	     13.37697203	      5.88841011	    -23.18190166	     15.33055461	    -14.11190300	      0.00000000	     25.56677702	     -6.20704433	     -3.56262374	    -69.72079531	     11.29125516	    -14.40566081	      0.00000000	    -10.76995172	      5.86251098	     -3.02582604
      3.42500000	     -2.38633038	     -4.78516978	     -2.55604614	     -1.16536811	      0.93700151	      0.24029473	     13.11748360	     13.21284251	      6.28307564	    -22.68360247	     15.46544107	    -14.21582447	      0.00000000	     26.03235442	     -6.00103663	     -3.57903793	    -68.91739884	     11.82623539	    -13.68336408	      0.00000000	    -10.88384547	      5.58209368	     -2.84473783
      3.43000000	     -2.31398492	     -4.57464162	     -2.70613437	     -1.15869407	      0.93807733	      0.24077691	     12.31139301	     13.01602754	      6.60870302	    -22.21508688	     15.57708350	    -14.27722482	      0.00000000	     26.49221487	     -5.77376727	     -3.61754021	    -68.00131911	     12.33774589	    -13.03233338	      0.00000000	    -10.94840938	      5.28843341	     -2.70752711
      3.43500000	     -2.23556536	     -4.36580917	     -2.85775481	     -1.15203620	      0.93908437	      0.24127648	     11.50198309	     12.81720420	      6.94238965	    -21.74489773	     15.70492597	    -14.34213417	      0.00000000	     26.91965656	     -5.54705884	     -3.65808014	    -67.00703078	     12.77583982	    -12.43856232	      0.00000000	    -11.02261345	      4.99027911	     -2.54878557
      3.44000000	     -2.17872021	     -4.15635248	     -3.01418559	     -1.14537567	      0.93999263	      0.24175763	     10.73647993	     12.60877139	      7.23081247	    -21.30344264	     15.82474735	    -14.38926141	      0.00000000	     27.32975969	     -5.31815957	     -3.71583303	    -65.91404739	     13.19562771	    -11.93226601	      0.00000000	    -11.06784889	      4.69695892	     -2.41589088
      3.44500000	     -2.12590105	     -3.95228160	     -3.17204871	     -1.13871734	      0.94081571	      0.24225224	      9.98392558	     12.40164775	      7.50784038	    -20.87073852	     15.94927636	    -14.43049454	      0.00000000	     27.71426361	     -5.09406184	     -3.77586753	    -64.74143003	     13.55290908	    -11.49731039	      0.00000000	    -11.10796413	      4.40569223	     -2.27395384
      3.45000000	     -2.08003382	     -3.75680489	     -3.33252653	     -1.13206140	      0.94154622	      0.24272064	      9.25235123	     12.19709880	      7.76571094	    -20.45548218	     16.07681894	    -14.47168851	      0.00000000	     28.07286441	     -4.87580193	     -3.84149661	    -63.48518629	     13.86245223	    -11.14050617	      0.00000000	    -11.13881584	      4.13227291	     -2.13073142
      3.45500000	     -2.02609778	     -3.57174689	     -3.49977059	     -1.12540840	      0.94221174	      0.24318059	      8.52537046	     12.00005979	      8.03413849	    -20.06359797	     16.18907776	    -14.51168572	      0.00000000	     28.38463472	     -4.65713199	     -3.89241288	    -62.14276754	     14.12581339	    -10.86483671	      0.00000000	    -11.18229411	      3.86862868	     -1.95931093
      3.46000000	     -1.99613405	     -3.39982123	     -3.66463231	     -1.11875119	      0.94273685	      0.24364651	      7.83763711	     11.81371358	      8.26186763	    -19.68751225	     16.31162635	    -14.55483577	      0.00000000	     28.69335267	     -4.46018654	     -3.96080258	    -60.72851658	     14.35991724	    -10.66070251	      0.00000000	    -11.19736782	      3.61867386	     -1.81910210
      3.46500000	     -1.96567327	     -3.24252811	     -3.82972857	     -1.11211479	      0.94317332	      0.24406639	      7.16547505	     11.63810117	      8.49225727	    -19.33772677	     16.42718438	    -14.60187808	      0.00000000	     28.96932370	     -4.26253052	     -4.00251948	    -59.23844468	     14.55057031	    -10.51984946	      0.00000000	    -11.22100154	      3.39512252	     -1.64914981
      3.47000000	     -1.95679804	     -3.09550852	     -3.99753735	     -1.10544267	      0.94347858	      0.24451006	      6.52849879	     11.47406012	      8.69159553	    -19.00889418	     16.55418388	    -14.66040930	      0.00000000	     29.23276789	     -4.08570639	     -4.06115836	    -57.67413619	     14.71626904	    -10.42320524	      0.00000000	    -11.20852640	      3.18173131	     -1.52253346
      3.47500000	     -1.94535556	     -2.96855122	     -4.16617390	     -1.09879228	      0.94369234	      0.24493071	      5.90183665	     11.32826064	      8.89417474	    -18.70212999	     16.67529929	    -14.72250523	      0.00000000	     29.46320461	     -3.92159172	     -4.10021259	    -56.04261540	     14.84503977	    -10.37417483	      0.00000000	    -11.21132664	      2.99686126	     -1.36373421
      3.48000000	     -1.99400386	     -2.86215039	     -4.30399848	     -1.09216406	      0.94370798	      0.24531540	      5.36936582	     11.20604663	      9.02957930	    -18.44139960	     16.80327352	    -14.78316841	      0.00000000	     29.73621299	     -3.75232532	     -4.04917289	    -54.35759320	     14.97384934	    -10.28820051	      0.00000000	    -11.14542475	      2.83394751	     -1.23708877
      3.48500000	     -1.93661427	     -2.75001652	     -4.51675676	     -1.08547452	      0.94382218	      0.24578651	      4.70085696	     11.07455718	      9.28001061	    -18.16036598	     16.93742678	    -14.86602521	      0.00000000	     29.83421682	     -3.63123685	     -4.16186473	    -52.56929746	     15.01473865	    -10.35050111	      0.00000000	    -11.19968211	      2.65507495	     -1.04350141
      3.49000000	     -1.92336011	     -2.66829566	     -4.68605806	     -1.07880809	      0.94376456	      0.24618503	      4.10297791	     10.97335555	      9.46699753	    -17.91312259	     17.06620604	    -14.95570503	      0.00000000	     29.95988716	     -3.50801193	     -4.16636346	    -50.73607755	     15.07902570	    -10.32541339	      0.00000000	    -11.21155487	      2.52171352	     -0.87756437
      3.49500000	     -1.90344458	     -2.60510131	     -4.86660943	     -1.07216262	      0.94363193	      0.24659310	      3.51137908	     10.89048916	      9.65153614	    -17.69140514	     17.20120495	    -15.03696411	      0.00000000	     30.04364467	     -3.40269047	     -4.14942444	    -48.84054445	     15.11920633	    -10.29750554	      0.00000000	    -11.24156171	      2.40272288	     -0.67799695
      3.50000000	     -1.93798939	     -2.54109338	     -5.03306030	     -1.06547686	      0.94332482	      0.24698977	      2.99096419	     10.80872970	      9.78469053	    -17.49128460	     17.37106198	    -15.10626502	      0.00000000	     30.15586494	     -3.30651326	     -4.14535011	    -46.88853297	     15.16003423	    -10.22626664	      0.00000000	    -11.19750648	      2.29355429	     -0.55952330
      3.50500000	     -1.94823935	     -2.48784058	     -5.20703978	     -1.05879988	      0.94298441	      0.24735779	      2.45594488	     10.73255401	      9.92983051	    -17.31692000	     17.55043479	    -15.15190624	      0.00000000	     30.20266511	     -3.21818203	     -4.12798407	    -44.86949683	     15.18048422	    -10.12914043	      0.00000000	    -11.19426800	      2.19932475	     -0.38700199
      3.51000000	     -1.95612652	     -2.44595514	     -5.38292397	     -1.05212538	      0.94256917	      0.24772747	      1.92847832	     10.66602440	     10.06063865	    -17.16188907	     17.74662113	    -15.18146032	      0.00000000	     30.21199426	     -3.14361511	     -4.09537972	    -42.79444874	     15.19358641	     -9.98408364	      0.00000000	    -11.19904068	      2.11439446	     -0.21793674
      3.51500000	     -1.97830813	     -2.40947213	     -5.56008144	     -1.04543381	      0.94205757	      0.24810414	      1.42456353	     10.60471354	     10.17314371	    -17.02406977	     17.96656999	    -15.19253029	      0.00000000	     30.20145793	     -3.08054869	     -4.05469960	    -40.66677648	     15.19805807	     -9.78571875	      0.00000000	    -11.18765161	      2.03462172	     -0.06460945
      3.52000000	     -2.00736856	     -2.37733306	     -5.73173692	     -1.03874761	      0.94146500	      0.24845336	      0.94279728	     10.54523174	     10.27549702	    -16.91540473	     18.20356276	    -15.18091652	      0.00000000	     30.16543514	     -3.02208944	     -3.99598436	    -38.48876423	     15.19047926	     -9.53110168	      0.00000000	    -11.17545461	      1.96637754	      0.09029271
      3.52500000	     -2.03247977	     -2.34916395	     -5.90646629	     -1.03205350	      0.94081384	      0.24879329	      0.46535229	     10.48572319	     10.37183517	    -16.82599200	     18.46215565	    -15.14107925	      0.00000000	     30.08977158	     -2.97210151	     -3.93102418	    -36.26184178	     15.16125119	     -9.23789656	      0.00000000	    -11.17205602	      1.90136345	      0.24942696
      3.53000000	     -2.05920523	     -2.32684722	     -6.07844207	     -1.02535560	      0.94009708	      0.24911130	      0.00099688	     10.42876961	     10.45830894	    -16.76047182	     18.73629659	    -15.07637497	      0.00000000	     29.98588797	     -2.92967306	     -3.84982158	    -33.99754950	     15.10962450	     -8.90619037	      0.00000000	    -11.17290277	      1.84429254	      0.40681567
      3.53500000	     -2.21211985	     -2.38523300	     -6.18778390	     -1.01870108	      0.93907536	      0.24936840	     -0.32381773	     10.47714509	     10.49325396	    -16.70323473	     18.97440864	    -15.07356538	      0.00000000	     30.03262056	     -2.95492115	     -3.62961303	    -31.77982141	     15.09689603	     -8.45029565	      0.00000000	    -11.03931769	      1.90678097	      0.53732539
      3.54000000	     -2.10662826	     -2.29830867	     -6.43013686	     -1.01196794	      0.93849293	      0.24975227	     -0.90202230	     10.32308379	     10.61892305	    -16.70060775	     19.32912424	    -14.86965133	      0.00000000	     29.69239470	     -2.87822199	     -3.63786373	    -29.39337125	     14.90282920	     -8.18882426	      0.00000000	    -11.20321944	      1.74315229	      0.74314736
      3.54500000	     -2.13969032	     -2.28189887	     -6.58549981	     -1.00523135	      0.93758499	      0.25004676	     -1.33528123	     10.26557096	     10.68137146	    -16.69088523	     19.64423969	    -14.74871372	      0.00000000	     29.52920079	     -2.85387048	     -3.52249569	    -27.08084058	     14.74483634	     -7.83033395	      0.00000000	    -11.20415266	      1.69457338	      0.87074402
